<svg width="30" height="30" viewBox="0 0 0.9 0.9" xmlns="http://www.w3.org/2000/svg" data-name="Layer 1">
  <path d="M.65.205A.045.045 0 1 0 .695.25.045.045 0 0 0 .65.205m.172.091A.3.3 0 0 0 .805.205.2.2 0 0 0 .762.139.2.2 0 0 0 .696.096.3.3 0 0 0 .605.078C.565.075.552.075.45.075s-.115 0-.154.002a.3.3 0 0 0-.091.018.2.2 0 0 0-.066.043.2.2 0 0 0-.043.066.3.3 0 0 0-.018.091C.075.335.075.348.075.45s0 .115.002.154a.3.3 0 0 0 .018.091.2.2 0 0 0 .043.066.2.2 0 0 0 .066.043.3.3 0 0 0 .091.018c.04.003.053.003.155.003s.115 0 .154-.002A.3.3 0 0 0 .695.805.2.2 0 0 0 .761.762.2.2 0 0 0 .804.696.3.3 0 0 0 .821.605c0-.04.002-.052.002-.154s0-.115-.002-.154M.755.6a.2.2 0 0 1-.013.07.1.1 0 0 1-.028.043.1.1 0 0 1-.043.028.2.2 0 0 1-.07.013C.564.756.55.756.451.756s-.112 0-.15-.002A.2.2 0 0 1 .228.743.1.1 0 0 1 .187.715.1.1 0 0 1 .159.672.2.2 0 0 1 .144.601C.144.564.142.55.142.451s0-.112.002-.15A.2.2 0 0 1 .157.23.1.1 0 0 1 .188.188a.1.1 0 0 1 .041-.03A.2.2 0 0 1 .3.145C.337.145.351.143.45.143s.112 0 .15.002a.2.2 0 0 1 .07.013.1.1 0 0 1 .045.03.1.1 0 0 1 .028.041A.2.2 0 0 1 .756.3c.002.037.002.051.002.15s0 .112-.002.15M.45.258A.192.192 0 1 0 .643.45.19.19 0 0 0 .45.258m0 .317A.125.125 0 1 1 .575.45.125.125 0 0 1 .45.575"/>
</svg>
